<?xml version="1.0" encoding="UTF-8"?>
<svg xmlns="http://www.w3.org/2000/svg" xmlns:xlink="http://www.w3.org/1999/xlink" width="0" height="0">
  <defs>
    <symbol viewBox="0 0 24 24" id="X">
      <path
        fill="currentColor"
        d="M18.901 1.153h3.68l-8.04 9.19L24 22.846h-7.406l-5.8-7.584l-6.638 7.584H.474l8.6-9.83L0 1.154h7.594l5.243 6.932ZM17.61 20.644h2.039L6.486 3.24H4.298Z"
      ></path>
    </symbol>
    <symbol viewBox="0 0 24 24" id="Telegram">
      <path
        fill="currentColor"
        d="M11.944 0A12 12 0 0 0 0 12a12 12 0 0 0 12 12a12 12 0 0 0 12-12A12 12 0 0 0 12 0zm4.962 7.224c.1-.002.321.023.465.14a.5.5 0 0 1 .171.325c.016.093.036.306.02.472c-.18 1.898-.962 6.502-1.36 8.627c-.168.9-.499 1.201-.82 1.23c-.696.065-1.225-.46-1.9-.902c-1.056-.693-1.653-1.124-2.678-1.8c-1.185-.78-.417-1.21.258-1.91c.177-.184 3.247-2.977 3.307-3.23c.007-.032.014-.15-.056-.212s-.174-.041-.249-.024q-.159.037-5.061 3.345q-.72.495-1.302.48c-.428-.008-1.252-.241-1.865-.44c-.752-.245-1.349-.374-1.297-.789q.04-.324.893-.663q5.247-2.286 6.998-3.014c3.332-1.386 4.025-1.627 4.476-1.635"
      ></path>
    </symbol>
    <symbol viewBox="0 0 24 24" id="Solana">
      <path
        fill="currentColor"
        d="m23.876 18.031l-3.962 4.14a.9.9 0 0 1-.306.21a.9.9 0 0 1-.367.074H.46a.47.47 0 0 1-.252-.073a.45.45 0 0 1-.17-.196a.44.44 0 0 1-.031-.255a.44.44 0 0 1 .117-.23l3.965-4.139a.9.9 0 0 1 .305-.21a.9.9 0 0 1 .366-.075h18.78a.47.47 0 0 1 .252.074a.45.45 0 0 1 .17.196a.44.44 0 0 1 .031.255a.44.44 0 0 1-.117.23m-3.962-8.335a.9.9 0 0 0-.306-.21a.9.9 0 0 0-.367-.075H.46a.47.47 0 0 0-.252.073a.45.45 0 0 0-.17.197a.44.44 0 0 0-.031.254a.44.44 0 0 0 .117.23l3.965 4.14a.9.9 0 0 0 .305.21a.9.9 0 0 0 .366.074h18.78a.47.47 0 0 0 .252-.073a.45.45 0 0 0 .17-.196a.44.44 0 0 0 .031-.255a.44.44 0 0 0-.117-.23zM.46 6.723h18.782a.9.9 0 0 0 .367-.075a.9.9 0 0 0 .306-.21l3.962-4.14a.44.44 0 0 0 .117-.23a.44.44 0 0 0-.032-.254a.45.45 0 0 0-.17-.196a.47.47 0 0 0-.252-.073H4.76a.9.9 0 0 0-.366.074a.9.9 0 0 0-.305.21L.125 5.97a.44.44 0 0 0-.117.23a.44.44 0 0 0 .03.254a.45.45 0 0 0 .17.196a.47.47 0 0 0 .252.074z"
      ></path>
    </symbol>
    <symbol viewBox="0 0 24 24" id="Google">
      <path
        fill="currentColor"
        d="M12.48 10.92v3.28h7.84c-.24 1.84-.853 3.187-1.787 4.133c-1.147 1.147-2.933 2.4-6.053 2.4c-4.827 0-8.6-3.893-8.6-8.72s3.773-8.72 8.6-8.72c2.6 0 4.507 1.027 5.907 2.347l2.307-2.307C18.747 1.44 16.133 0 12.48 0C5.867 0 .307 5.387.307 12s5.56 12 12.173 12c3.573 0 6.267-1.173 8.373-3.36c2.16-2.16 2.84-5.213 2.84-7.667c0-.76-.053-1.467-.173-2.053z"
      ></path>
    </symbol>
    <symbol viewBox="0 0 24 24" id="Github">
      <path
        fill="currentColor"
        d="M12 .297c-6.63 0-12 5.373-12 12c0 5.303 3.438 9.8 8.205 11.385c.6.113.82-.258.82-.577c0-.285-.01-1.04-.015-2.04c-3.338.724-4.042-1.61-4.042-1.61C4.422 18.07 3.633 17.7 3.633 17.7c-1.087-.744.084-.729.084-.729c1.205.084 1.838 1.236 1.838 1.236c1.07 1.835 2.809 1.305 3.495.998c.108-.776.417-1.305.76-1.605c-2.665-.3-5.466-1.332-5.466-5.93c0-1.31.465-2.38 1.235-3.22c-.135-.303-.54-1.523.105-3.176c0 0 1.005-.322 3.3 1.23c.96-.267 1.98-.399 3-.405c1.02.006 2.04.138 3 .405c2.28-1.552 3.285-1.23 3.285-1.23c.645 1.653.24 2.873.12 3.176c.765.84 1.23 1.91 1.23 3.22c0 4.61-2.805 5.625-5.475 5.92c.42.36.81 1.096.81 2.22c0 1.606-.015 2.896-.015 3.286c0 .315.21.69.825.57C20.565 22.092 24 17.592 24 12.297c0-6.627-5.373-12-12-12"
      ></path>
    </symbol>
    <symbol viewBox="0 0 24 24" id="ExternalLink">
      <path
        fill="none"
        stroke="currentColor"
        stroke-linecap="round"
        stroke-linejoin="round"
        stroke-width="2"
        d="M15 3h6v6m-11 5L21 3m-3 10v6a2 2 0 0 1-2 2H5a2 2 0 0 1-2-2V8a2 2 0 0 1 2-2h6"
      ></path>
    </symbol>
    <symbol viewBox="0 0 24 24" id="Discord">
      <path
        fill="currentColor"
        d="M20.317 4.37a19.8 19.8 0 0 0-4.885-1.515a.074.074 0 0 0-.079.037c-.21.375-.444.864-.608 1.25a18.3 18.3 0 0 0-5.487 0a13 13 0 0 0-.617-1.25a.08.08 0 0 0-.079-.037A19.7 19.7 0 0 0 3.677 4.37a.1.1 0 0 0-.032.027C.533 9.046-.32 13.58.099 18.057a.08.08 0 0 0 .031.057a19.9 19.9 0 0 0 5.993 3.03a.08.08 0 0 0 .084-.028a14 14 0 0 0 1.226-1.994a.076.076 0 0 0-.041-.106a13 13 0 0 1-1.872-.892a.077.077 0 0 1-.008-.128a10 10 0 0 0 .372-.292a.07.07 0 0 1 .077-.01c3.928 1.793 8.18 1.793 12.062 0a.07.07 0 0 1 .078.01q.181.149.373.292a.077.077 0 0 1-.006.127a12.3 12.3 0 0 1-1.873.892a.077.077 0 0 0-.041.107c.36.698.772 1.362 1.225 1.993a.08.08 0 0 0 .084.028a19.8 19.8 0 0 0 6.002-3.03a.08.08 0 0 0 .032-.054c.5-5.177-.838-9.674-3.549-13.66a.06.06 0 0 0-.031-.03M8.02 15.33c-1.182 0-2.157-1.085-2.157-2.419c0-1.333.956-2.419 2.157-2.419c1.21 0 2.176 1.096 2.157 2.42c0 1.333-.956 2.418-2.157 2.418m7.975 0c-1.183 0-2.157-1.085-2.157-2.419c0-1.333.955-2.419 2.157-2.419c1.21 0 2.176 1.096 2.157 2.42c0 1.333-.946 2.418-2.157 2.418"
      ></path>
    </symbol>
    <symbol viewBox="0 0 24 24" id="Copy">
      <g fill="none" stroke="currentColor" stroke-linecap="round" stroke-linejoin="round" stroke-width="2">
        <rect width="14" height="14" x="8" y="8" rx="2" ry="2"></rect>
        <path d="M4 16c-1.1 0-2-.9-2-2V4c0-1.1.9-2 2-2h10c1.1 0 2 .9 2 2"></path>
      </g>
    </symbol>
    <symbol viewBox="0 0 24 24" id="Check">
      <path
        fill="none"
        stroke="currentColor"
        stroke-linecap="round"
        stroke-linejoin="round"
        stroke-width="2"
        d="M20 6L9 17l-5-5"
      ></path>
    </symbol>
  </defs>
</svg>
