<?xml version="1.0" encoding="UTF-8"?>
<svg width="487px" height="159px" viewBox="0 0 487 159" version="1.1" xmlns="http://www.w3.org/2000/svg" xmlns:xlink="http://www.w3.org/1999/xlink">
    <title>user-profiles</title>
    <defs>
        <linearGradient x1="304.784853%" y1="35945.8453%" x2="386.554257%" y2="35964.5108%" id="linearGradient-1">
            <stop stop-color="#000000" stop-opacity="0" offset="0%"></stop>
            <stop stop-color="#000000" offset="99%"></stop>
        </linearGradient>
        <linearGradient x1="82.0906036%" y1="57.1694824%" x2="0.362661833%" y2="38.504073%" id="linearGradient-2">
            <stop stop-color="#000000" stop-opacity="0" offset="0%"></stop>
            <stop stop-color="#000000" offset="99%"></stop>
        </linearGradient>
        <linearGradient x1="144.852419%" y1="6703.95855%" x2="64.4502478%" y2="7005.11917%" id="linearGradient-3">
            <stop stop-color="#000000" stop-opacity="0" offset="0%"></stop>
            <stop stop-color="#000000" offset="99%"></stop>
        </linearGradient>
        <linearGradient x1="38.1038133%" y1="120.713392%" x2="76.4006283%" y2="-107.008761%" id="linearGradient-4">
            <stop stop-color="#000000" stop-opacity="0" offset="0%"></stop>
            <stop stop-color="#000000" offset="99%"></stop>
        </linearGradient>
        <linearGradient x1="242.495748%" y1="20672.1178%" x2="204.102891%" y2="20900.0627%" id="linearGradient-5">
            <stop stop-color="#000000" stop-opacity="0" offset="0%"></stop>
            <stop stop-color="#000000" offset="99%"></stop>
        </linearGradient>
    </defs>
    <g id="Page-1" stroke="none" stroke-width="1" fill="none" fill-rule="evenodd">
        <g id="user-profiles" transform="translate(0.047, 0.947)" fill-rule="nonzero">
            <g id="character_3_user-profile-53" transform="translate(334.6307, 0.0207)">
                <path d="M151.832354,75.9323537 C151.832354,117.882354 117.822354,151.882354 75.8823537,151.882354 C62.4323537,151.882354 49.2123537,148.312354 37.6023537,141.522354 L40.6923537,144.332354 L3.43235372,157.122354 L16.0523537,122.632354 C-9.73764628,89.5523537 -3.81764628,41.8323537 29.2523537,16.0523537 C62.3323537,-9.73764628 110.052354,-3.81764628 135.832354,29.2523537 C146.232354,42.5923537 151.882354,59.0123537 151.882354,75.9323537 L151.832354,75.9323537 L151.832354,75.9323537 Z" id="Path" fill="#1971C2" opacity="0.18"></path>
                <path d="M62.6423537,101.512354 C62.6423537,101.512354 41.7623537,101.932354 31.0923537,119.362354 C31.0923537,119.362354 23.8223537,144.332354 24.5523537,149.642354 L40.6823537,144.362354 C48.7223537,148.852354 60.8023537,152.292354 77.9823537,151.522354 C110.352354,150.082354 124.942354,133.672354 124.942354,133.672354 C124.942354,133.672354 121.512354,110.432354 102.352354,105.152354 C83.1923537,99.8723537 62.6423537,101.522354 62.6423537,101.522354 L62.6423537,101.512354 Z" id="Path" fill="#1971C2"></path>
                <path d="M64.2123537,83.7323537 C64.2123537,83.7323537 63.9423537,98.4923537 62.6423537,101.512354 C61.3423537,104.532354 72.9023537,113.742354 84.7423537,105.332354 L85.5323537,101.642354 C85.5323537,101.642354 83.4323537,91.3823537 84.7423537,82.4323537 C86.0523537,73.4823537 64.2123537,83.7423537 64.2123537,83.7423537 L64.2123537,83.7323537 Z" id="Path" fill="#C14834"></path>
                <path d="M64.0323537,85.6623537 C64.0323537,85.6623537 66.1023537,95.5823537 74.8723537,96.2723537 C83.6423537,96.9623537 84.3523537,93.9923537 84.3523537,93.9923537 L84.5723537,81.2723537 L64.0323537,85.6523537 L64.0323537,85.6623537 Z" id="Path" fill="#000000"></path>
                <path d="M50.8823537,53.7423537 C49.8623537,53.0023537 48.5623537,52.7523537 47.3423537,53.0623537 C46.8723537,53.2623537 46.4623537,53.5623537 46.1323537,53.9423537 C44.2923537,55.8923537 44.3923537,58.9723537 44.9223537,61.5923537 C45.2523537,63.0623537 45.6923537,64.5123537 46.2523537,65.9123537 C46.4723537,66.5623537 46.8123537,67.1723537 47.2323537,67.7123537 C48.5323537,69.2723537 50.8623537,69.4823537 52.8623537,69.2523537 C54.0823537,69.2523537 55.2223537,68.6623537 55.9423537,67.6823537 C56.1223537,67.2623537 56.2323537,66.8223537 56.2523537,66.3623537 C56.7623537,61.0723537 55.5123537,56.5423537 50.8723537,53.7323537 L50.8823537,53.7423537 Z" id="Path" fill="#C14834"></path>
                <path d="M100.932354,55.8923537 C102.422354,54.8523537 104.362354,54.0523537 106.032354,54.7623537 C107.362354,55.4323537 108.242354,56.7623537 108.332354,58.2523537 C108.412354,59.7223537 108.162354,61.1923537 107.582354,62.5423537 C107.012354,64.2823537 106.112354,65.8923537 104.932354,67.2923537 C103.722354,68.6723537 102.032354,69.5423537 100.212354,69.7123537 C98.3523537,69.8523537 96.5723537,68.9123537 95.6423537,67.2923537 C95.2023537,66.2323537 94.9923537,65.0823537 95.0323537,63.9223537 C94.9523537,63.0323537 95.0523537,62.1323537 95.3323537,61.2823537 C96.0423537,59.5223537 99.4023537,56.9423537 100.932354,55.8923537 L100.932354,55.8923537 Z" id="Path" fill="#C14834"></path>
                <path d="M99.4023537,60.8723537 C97.5123537,76.7023537 88.7123537,89.7323537 75.5323537,89.7323537 C62.3523537,89.7323537 51.6723537,76.8123537 51.6723537,60.8723537 C51.6723537,44.9323537 60.1523537,26.9623537 73.3323537,26.9623537 C86.5123537,26.9623537 103.262354,28.5023537 99.4123537,60.8723537 L99.4023537,60.8723537 Z" id="Path" fill="#C14834"></path>
                <path d="M51.6823537,53.5923537 L51.9023537,57.1323537 C51.9023537,57.6923537 52.0823537,58.3423537 52.6323537,58.5023537 C53.1823537,58.6623537 53.7123537,57.6823537 53.7223537,56.9523537 C53.7223537,54.0423537 52.8123537,50.7623537 54.6223537,48.4723537 C55.0723537,48.0223537 55.4823537,47.5323537 55.8323537,47.0023537 C56.5823537,45.4923537 55.4423537,43.5623537 56.1223537,42.0123537 C56.5223537,41.1323537 57.4023537,40.5823537 58.0523537,39.8423537 C58.8423537,38.6923537 59.4423537,37.4123537 59.8323537,36.0723537 C59.9823537,35.6223537 60.2623537,35.2223537 60.6423537,34.9423537 C61.0023537,34.7923537 61.3923537,34.6923537 61.7823537,34.6423537 C63.2623537,34.2623537 64.1323537,32.7523537 65.4123537,31.9623537 C66.5723537,31.3823537 67.8723537,31.1423537 69.1623537,31.2623537 C74.2123537,31.4223537 79.4723537,33.2123537 84.1423537,31.2623537 C86.0623537,33.9923537 88.9823537,35.8523537 92.2723537,36.4423537 C92.5423537,36.4623537 92.8123537,36.5523537 93.0323537,36.7123537 C93.2523537,36.9723537 93.3923537,37.2823537 93.4423537,37.6223537 C93.9223537,38.6823537 94.6023537,39.6523537 95.4523537,40.4523537 C98.3723537,44.0823537 98.3123537,49.1123537 98.0923537,53.7723537 L97.7523537,61.1723537 L100.332354,56.8323537 C100.602354,56.3223537 100.942354,55.8723537 101.362354,55.4723537 C101.832354,55.0723537 102.462354,54.8323537 102.752354,54.2623537 C102.872354,53.9823537 102.942354,53.6723537 102.962354,53.3623537 L103.592354,47.0123537 C103.772354,45.8723537 103.732354,44.7023537 103.472354,43.5723537 C103.252354,42.8723537 102.862354,42.2323537 102.652354,41.5223537 C102.412354,40.2323537 102.372354,38.9123537 102.542354,37.6123537 C102.712354,36.2923537 102.292354,34.9623537 101.402354,33.9823537 C102.252354,31.1523537 103.052354,28.1423537 102.382354,25.2623537 C101.712354,22.3823537 99.0423537,19.7523537 96.1223537,20.1923537 C95.6823537,20.3123537 95.2223537,20.3423537 94.7623537,20.2923537 C94.3823537,20.1623537 94.0323537,19.9523537 93.7323537,19.6723537 C91.6923537,18.0723537 89.2123537,17.1323537 86.6223537,17.0123537 C83.5723537,16.8223537 80.5123537,16.8223537 77.4623537,17.0123537 C70.6023537,17.5823537 63.4123537,16.1623537 57.0023537,18.6323537 C55.4623537,19.2023537 54.0423537,20.0523537 52.8123537,21.1523537 C51.5423537,22.4423537 50.4623537,23.9023537 49.5823537,25.4723537 C49.0923537,26.1723537 48.7223537,26.9623537 48.5023537,27.7823537 C48.4023537,28.6923537 48.4023537,29.6123537 48.5023537,30.5223537 C48.5023537,33.5623537 46.9523537,36.5823537 47.4623537,39.5423537 C47.6423537,40.6423537 48.0923537,41.6723537 48.2523537,42.7723537 C48.3323537,43.7723537 48.3323537,44.7823537 48.2523537,45.7923537 C48.1723537,48.3323537 48.6123537,50.8623537 49.5623537,53.2123537 C49.7223537,53.6123537 49.9723537,54.0723537 50.4123537,54.1123537 C50.8523537,54.1523537 51.2923537,53.0923537 51.6823537,53.5623537 L51.6823537,53.5923537 Z" id="Path" fill="#404040"></path>
                <path d="M55.1523537,80.1923537 C55.4823537,81.6523537 55.9823537,83.0723537 56.6523537,84.4223537 C58.3723537,87.3423537 61.0823537,89.5423537 64.2923537,90.6323537 C67.4823537,91.6923537 70.8223537,92.2323537 74.1923537,92.2223537 C78.7023537,92.3423537 83.2223537,92.0723537 87.6823537,91.4223537 C89.2823537,91.1923537 89.1623537,90.8423537 90.4423537,89.8823537 C92.5123537,88.3323537 94.8923537,85.5723537 95.2823537,83.0123537 C96.5623537,75.4223537 98.7123537,64.8423537 98.3923537,57.1423537 C96.3323537,60.9423537 96.3623537,69.0823537 93.3623537,72.2123537 C91.7423537,73.8923537 89.3123537,74.4723537 87.0123537,74.8523537 C79.6123537,76.0823537 72.0423537,75.9723537 64.6823537,74.5523537 C62.4523537,74.3023537 60.3523537,73.4023537 58.6223537,71.9623537 C56.0023537,69.3823537 56.2023537,65.2323537 55.6323537,61.5923537 C55.4023537,59.9923537 54.7823537,57.6123537 53.0323537,57.0723537 C52.5023537,60.2623537 53.2223537,63.7423537 53.3023537,66.9523537 C53.4123537,71.4223537 54.0323537,75.8623537 55.1423537,80.1923537 L55.1523537,80.1923537 Z" id="Path" fill="#404040"></path>
                <path d="M49.2423537,58.8123537 C49.2423537,58.4523537 49.2023537,58.0823537 49.1123537,57.7323537 C49.0123537,57.3723537 48.6923537,57.1123537 48.3223537,57.0923537 C47.9323537,57.0923537 47.6523537,57.4523537 47.4723537,57.7923537 C46.8223537,59.2323537 46.7523537,60.8623537 47.2923537,62.3423537 C47.6923537,63.8523537 48.6223537,65.1723537 49.9223537,66.0523537 C50.5723537,66.5323537 51.4323537,66.6023537 52.1523537,66.2323537 C53.3623537,65.3923537 52.8923537,62.9523537 51.8023537,62.2723537 C51.1323537,61.8623537 50.5923537,61.9123537 50.0723537,61.1823537 C49.5723537,60.4923537 49.2923537,59.6623537 49.2523537,58.8123537 L49.2423537,58.8123537 Z" id="Path" fill="url(#linearGradient-1)"></path>
                <path d="M103.112354,58.8123537 C103.112354,58.4523537 103.152354,58.0823537 103.242354,57.7323537 C103.342354,57.3723537 103.662354,57.1123537 104.032354,57.0923537 C104.422354,57.0923537 104.702354,57.4523537 104.882354,57.7923537 C105.532354,59.2323537 105.602354,60.8623537 105.062354,62.3423537 C104.662354,63.8523537 103.732354,65.1723537 102.432354,66.0523537 C101.782354,66.5323537 100.922354,66.6023537 100.202354,66.2323537 C98.9923537,65.3923537 99.4723537,62.9523537 100.552354,62.2723537 C101.222354,61.8623537 101.762354,61.9123537 102.282354,61.1823537 C102.782354,60.4923537 103.062354,59.6623537 103.102354,58.8123537 L103.112354,58.8123537 Z" id="Path" fill="url(#linearGradient-2)"></path>
                <path d="M89.6023537,95.4623537 C88.3923537,94.9123537 87.0523537,94.6923537 85.7223537,94.8323537 C77.5423537,95.0523537 69.0923537,96.7423537 61.4023537,93.9723537 C60.0823537,95.2523537 59.1123537,96.8523537 58.5923537,98.6123537 C57.8023537,102.332354 60.9423537,105.782354 64.3323537,107.482354 C70.0623537,110.362354 76.7723537,110.302354 83.1623537,109.902354 C85.6723537,109.752354 88.3823537,109.502354 90.2523537,107.802354 C93.2223537,105.162354 93.3723537,97.5823537 89.6023537,95.4623537 Z" id="Path" fill="#1971C2"></path>
                <path d="M58.4323537,101.372354 C58.4323537,101.372354 55.7923537,107.682354 68.9623537,107.952354 C68.9623537,107.952354 55.7923537,108.222354 52.1123537,111.112354 C48.4323537,114.002354 39.2123537,118.472354 38.6923537,124.282354 C38.1723537,130.092354 35.0023537,145.602354 35.0023537,145.602354 L24.5223537,149.622354 L31.0623537,119.342354 C37.3323537,109.842354 47.2323537,103.352354 58.4323537,101.382354 L58.4323537,101.372354 Z" id="Path" fill="url(#linearGradient-3)"></path>
            </g>
            <g id="character_2_user-profile-53" transform="translate(167.9407, 0.0307)">
                <path d="M151.932354,75.9223537 C151.932354,117.872354 117.902354,151.882354 75.9523537,151.872354 C62.5023537,151.872354 49.2923537,148.292354 37.6823537,141.522354 L40.7823537,144.332354 L3.48235372,157.122354 L16.0523537,122.632354 C-9.73764628,89.5523537 -3.81764628,41.8323537 29.2523537,16.0523537 C62.3323537,-9.73764628 110.052354,-3.81764628 135.832354,29.2523537 C146.232354,42.5923537 151.882354,59.0123537 151.882354,75.9323537 L151.932354,75.9323537 L151.932354,75.9223537 Z" id="Path" fill="#1971C2" opacity="0.18"></path>
                <path d="M62.7323537,101.502354 C62.7323537,101.502354 41.8523537,101.922354 31.2423537,119.352354 C31.2423537,119.352354 23.9723537,144.322354 24.7023537,149.632354 L40.8323537,144.352354 C48.8723537,148.842354 60.9523537,152.282354 78.1223537,151.512354 C110.512354,150.072354 125.092354,133.662354 125.092354,133.662354 C125.092354,133.662354 121.662354,110.422354 102.502354,105.142354 C83.3423537,99.8623537 62.7223537,101.512354 62.7223537,101.512354 L62.7323537,101.502354 Z" id="Path" fill="#1971C2"></path>
                <path d="M108.122354,73.7123537 C110.752354,60.2923537 113.112354,39.5823537 103.872354,35.3423537 L97.8123537,35.0623537 C97.8123537,35.0623537 93.3623537,24.7623537 75.5623537,26.4423537 C57.7623537,28.1223537 39.8123537,43.1223537 47.9223537,67.5023537 C52.1323537,80.1423537 44.6523537,98.5423537 44.6523537,98.5423537 L70.8423537,98.4423537 L111.272354,97.1623537 L111.272354,97.1623537 C107.652354,89.9123537 106.542354,81.6623537 108.122354,73.7123537 Z" id="Path" fill="#404040"></path>
                <path d="M104.152354,53.0623537 C104.152354,53.0623537 109.292354,85.5623537 96.3723537,89.7223537 C93.5223537,91.4123537 90.1023537,91.8523537 86.9223537,90.9323537 L86.9223537,101.212354 C86.9223537,101.212354 73.8823537,111.072354 63.1823537,100.512354 L63.1823537,73.9923537 C63.1823537,73.9923537 64.3923537,57.8323537 67.6323537,59.5523537 C68.3723537,59.9523537 74.9023537,59.2723537 75.9623537,47.4423537 C75.9623537,47.4423537 90.9523537,40.7723537 97.8923537,45.3623537 C104.832354,49.9523537 104.142354,53.0623537 104.142354,53.0623537 L104.152354,53.0623537 Z" id="Path" fill="#FFAA71"></path>
                <path d="M86.9323537,90.9723537 C86.9323537,90.9723537 79.0223537,88.8923537 76.1023537,85.2823537 C76.1023537,85.2823537 80.1223537,101.112354 86.9323537,101.262354 L86.9323537,90.9823537 L86.9323537,90.9723537 Z" id="Path" fill="url(#linearGradient-4)"></path>
                <path d="M93.4123537,43.6423537 C89.4023537,43.6423537 85.0423537,44.2123537 82.2223537,47.0423537 C78.7323537,50.5423537 78.8223537,56.1123537 77.2923537,60.8123537 C76.1623537,64.3923537 73.9123537,67.5123537 70.8623537,69.7023537 C67.7823537,71.8723537 63.9523537,72.7223537 60.2423537,72.0423537 C59.4823537,71.9623537 58.7823537,71.5723537 58.3123537,70.9623537 C58.0523537,70.4223537 57.9723537,69.8123537 58.0623537,69.2223537 C58.4123537,62.5623537 59.2023537,55.6723537 62.6423537,49.9623537 C64.5623537,46.8123537 67.2123537,44.1623537 70.3723537,42.2423537 C72.2023537,41.0723537 74.2723537,40.3123537 76.4323537,40.0123537 C80.6723537,39.5323537 84.7923537,41.4123537 88.6323537,43.2723537" id="Path" fill="#404040"></path>
                <path d="M62.6023537,100.452354 C62.6023537,100.452354 58.0823537,101.142354 58.2323537,104.412354 C58.3823537,107.682354 58.9223537,117.532354 64.0023537,115.172354 C69.0823537,112.812354 73.3723537,105.662354 73.3723537,105.662354 L62.6023537,100.452354 Z" id="Path" fill="#FFFFFF"></path>
                <path d="M86.0623537,100.452354 C86.0623537,100.452354 90.5823537,101.142354 90.4423537,104.412354 C90.3023537,107.682354 89.7423537,117.532354 84.6723537,115.172354 C79.6123537,112.812354 75.3023537,105.662354 75.3023537,105.662354 L86.0623537,100.452354 Z" id="Path" fill="#FFFFFF"></path>
                <circle id="Oval" fill="#FFFFFF" cx="74.0823537" cy="118.662354" r="2.51"></circle>
                <circle id="Oval" fill="#FFFFFF" cx="74.0823537" cy="127.522354" r="2.51"></circle>
                <circle id="Oval" fill="#FFFFFF" cx="74.0823537" cy="136.392354" r="2.51"></circle>
            </g>
            <g id="character_1_user-profile-53" transform="translate(0, 0)">
                <path d="M151.883021,75.9530205 C151.883021,117.903021 117.873021,151.903021 75.9330205,151.903021 C62.4830205,151.903021 49.2630205,148.333021 37.6530205,141.543021 L40.7530205,144.353021 L3.48302053,157.143021 L16.0630205,122.653021 C-9.72697947,89.5830205 -3.83697947,41.8630205 29.2430205,16.0630205 C62.3130205,-9.72697947 110.033021,-3.83697947 135.833021,29.2430205 C146.243021,42.5830205 151.893021,59.0230205 151.893021,75.9530205 L151.883021,75.9530205 Z" id="Path" fill="#1971C2" opacity="0.18"></path>
                <path d="M63.0330205,101.533021 C63.0330205,101.533021 42.1530205,101.953021 31.5430205,119.383021 C31.5430205,119.383021 26.0030205,144.153021 26.7030205,149.433021 L40.3930205,143.233021 C40.8030205,144.363021 60.9130205,152.303021 78.4330205,151.513021 C110.763021,150.073021 125.403021,133.693021 125.403021,133.693021 C125.403021,133.693021 121.973021,110.453021 102.813021,105.173021 C83.6530205,99.8930205 63.0330205,101.523021 63.0330205,101.523021 L63.0330205,101.533021 Z" id="Path" fill="#1971C2"></path>
                <path d="M62.8830205,100.483021 C62.8830205,100.483021 58.3630205,101.173021 58.5130205,104.443021 C58.6630205,107.713021 59.2030205,117.563021 64.2830205,115.203021 C69.3630205,112.843021 73.6530205,105.693021 73.6530205,105.693021 L62.8830205,100.483021 Z" id="Path" fill="#FFFFFF"></path>
                <path d="M86.3530205,100.483021 C86.3530205,100.483021 90.8730205,101.173021 90.7330205,104.443021 C90.5930205,107.713021 90.0330205,117.563021 84.9630205,115.203021 C79.8930205,112.843021 75.5930205,105.693021 75.5930205,105.693021 L86.3530205,100.483021 Z" id="Path" fill="#FFFFFF"></path>
                <path d="M45.8130205,53.3530205 C45.8130205,53.3530205 40.6730205,85.8530205 53.5930205,90.0030205 C56.4430205,91.6930205 59.8630205,92.1330205 63.0430205,91.2130205 L63.0430205,101.483021 C63.0430205,101.483021 76.0830205,111.343021 86.7830205,100.793021 L86.7830205,74.3530205 C86.7830205,74.3530205 85.5730205,58.1830205 82.3330205,59.9030205 C81.5930205,60.3130205 75.0630205,59.6330205 74.0030205,47.7930205 C74.0030205,47.7930205 59.0130205,41.1330205 52.0730205,45.7130205 C45.1330205,50.2930205 45.8230205,53.3530205 45.8230205,53.3530205 L45.8130205,53.3530205 Z" id="Path" fill="#FFB4A3"></path>
                <path d="M42.6530205,52.2630205 C44.2430205,55.1430205 46.9230205,57.2530205 50.1030205,58.1130205 C53.3530205,58.8830205 56.7330205,57.4830205 58.4730205,54.6330205 C61.1630205,58.4030205 66.2430205,59.5630205 70.2930205,57.3230205 C72.0130205,59.7430205 75.2930205,60.4130205 78.2430205,60.2330205 C82.0130205,60.0630205 85.6130205,58.5730205 88.3930205,56.0230205 C91.1330205,53.4030205 92.4830205,49.6430205 92.0230205,45.8730205 C91.3830205,41.5230205 88.1030205,38.0230205 84.5830205,35.3930205 C79.0330205,31.1630205 72.4530205,28.4930205 65.5230205,27.6530205 C59.2630205,26.9530205 49.2530205,27.6530205 44.4630205,32.3730205 C39.6730205,37.0930205 39.2330205,46.4930205 42.6630205,52.2630205 L42.6530205,52.2630205 Z" id="Path" fill="#C14834"></path>
                <path d="M63.0330205,91.3030205 C63.0330205,91.3030205 70.9430205,89.2230205 73.8630205,85.6130205 C73.8630205,85.6130205 69.8330205,101.443021 63.0330205,101.573021 L63.0330205,91.3030205 Z" id="Path" fill="url(#linearGradient-5)"></path>
                <path d="M79.0830205,55.6730205 L79.6530205,66.8730205 L81.9030205,63.7930205 C82.2430205,63.3230205 82.7030205,62.8130205 83.2730205,62.9130205 C83.8430205,63.0130205 83.9730205,63.4130205 84.1730205,63.7930205 C85.9730205,67.4930205 85.3130205,71.9030205 82.5230205,74.9230205 C82.0430205,75.3330205 81.6530205,75.8430205 81.3730205,76.4130205 C81.2330205,76.9030205 81.2030205,77.4230205 81.2730205,77.9230205 C81.5030205,81.1930205 86.3230205,85.0330205 87.1430205,82.6630205 C87.9630205,80.2930205 88.1230205,77.7130205 88.9030205,75.3130205 C90.1330205,72.2330205 91.8530205,69.3630205 94.0030205,66.8330205 C96.1730205,64.2930205 97.8230205,61.3530205 98.8430205,58.1730205 C99.6430205,54.9530205 99.0130205,51.1630205 96.4230205,49.0430205 C95.9330205,48.7330205 95.5230205,48.3230205 95.2130205,47.8330205 C95.0630205,47.4430205 94.9830205,47.0330205 94.9830205,46.6230205 C94.6930205,42.6030205 93.0330205,38.7930205 90.2730205,35.8530205 C87.4630205,32.9130205 83.5330205,31.3230205 79.4730205,31.4730205 C78.7930205,31.4730205 78.1230205,31.6330205 77.5130205,31.9330205 C76.3830205,32.7130205 75.6430205,33.9330205 75.4630205,35.2830205 C74.1630205,41.3430205 76.9730205,47.3930205 78.0330205,53.5430205" id="Path" fill="#C14834"></path>
            </g>
        </g>
    </g>
</svg>